# Blender v2.78 (sub 0) OBJ File: 'van.blend'
# www.blender.org
mtllib van.mtl
o Bumper_Cube.003
v 1.291896 0.043384 2.362926
v 1.291896 0.303983 2.362926
v 1.229995 0.043384 2.250442
v 1.229995 0.303983 2.250442
v 1.241423 0.303983 1.803860
v 1.241423 0.043384 1.803860
v 1.296886 0.043384 1.802612
v 1.296886 0.303983 1.802612
v -1.267995 0.043384 2.362926
v -1.267995 0.303983 2.362926
v -1.206093 0.043384 2.250442
v -1.206093 0.303983 2.250442
v 0.011951 0.043384 2.257961
v 0.011951 0.303983 2.257961
v 0.011951 0.043384 2.362926
v 0.011951 0.303983 2.362926
v -1.217521 0.303983 1.803860
v -1.217521 0.043384 1.803860
v -1.272985 0.043384 1.802612
v -1.272985 0.303983 1.802612
vt 0.0000 0.0000
vt 1.0000 0.0000
vt 1.0000 1.0000
vt 0.0000 1.0000
vt 0.0000 0.0000
vt 1.0000 0.0000
vt 1.0000 1.0000
vt 0.0000 1.0000
vt 1.0000 0.0000
vt 1.0000 1.0000
vt 0.0000 1.0000
vt 0.0000 0.0000
vt 1.0000 1.0000
vt 0.0000 1.0000
vt 0.0000 0.0000
vt 1.0000 0.0000
vt 0.0000 0.0000
vt 1.0000 0.0000
vt 1.0000 1.0000
vt 0.0000 1.0000
vt 1.0000 1.0000
vt 0.0000 1.0000
vt 0.0000 0.0000
vt 1.0000 0.0000
vt 1.0000 1.0000
vt 0.0000 1.0000
vt 1.0000 0.0000
vt 1.0000 1.0000
vt 0.0000 1.0000
vt 0.0000 0.0000
vt 1.0000 0.0000
vt 1.0000 1.0000
vt 0.0000 1.0000
vt 1.0000 0.0000
vt 1.0000 1.0000
vt 0.0000 1.0000
vt 0.0000 0.0000
vt 1.0000 0.0000
vt 0.0000 0.0000
vt 0.0000 1.0000
vt 0.0000 0.0000
vt 1.0000 0.0000
vt 1.0000 1.0000
vt 0.0000 1.0000
vt 1.0000 1.0000
vt 1.0000 0.0000
vt 0.0000 0.0000
vt 1.0000 0.0000
vt 1.0000 1.0000
vt 0.0000 1.0000
vn -0.0062 0.0000 -1.0000
vn 1.0000 0.0000 0.0089
vn -0.0000 -1.0000 0.0000
vn 0.0000 1.0000 -0.0000
vn 0.0000 0.0000 1.0000
vn -0.0225 0.0000 -0.9997
vn -0.9997 0.0000 -0.0256
vn 0.0062 0.0000 -1.0000
vn -1.0000 0.0000 0.0089
vn 0.0225 0.0000 -0.9997
vn 0.9997 0.0000 -0.0256
usemtl None
s off
f 13/1/1 14/2/1 4/3/1 3/4/1
f 2/5/2 1/6/2 7/7/2 8/8/2
f 13/1/3 3/9/3 1/10/3 15/11/3
f 4/12/4 14/2/4 16/13/4 2/14/4
f 1/15/5 2/16/5 16/13/5 15/11/5
f 6/17/6 5/18/6 8/19/6 7/20/6
f 1/15/3 3/9/3 6/21/3 7/20/3
f 4/12/4 2/16/4 8/19/4 5/22/4
f 3/23/7 4/24/7 5/25/7 6/26/7
f 13/1/8 11/27/8 12/28/8 14/29/8
f 10/30/9 20/31/9 19/32/9 9/33/9
f 13/1/3 15/34/3 9/35/3 11/36/3
f 12/37/4 10/38/4 16/13/4 14/29/4
f 9/39/5 15/34/5 16/13/5 10/40/5
f 18/41/10 19/42/10 20/43/10 17/44/10
f 9/39/3 19/42/3 18/45/3 11/36/3
f 12/37/4 17/46/4 20/43/4 10/40/4
f 11/47/11 18/48/11 17/49/11 12/50/11
o Van_Cube.002
v 1.199668 -0.003667 0.634668
v 1.207487 2.285110 1.000000
v 1.050001 0.150372 -3.554275
v 1.092054 2.169677 -3.554275
v 1.207487 1.293994 1.641369
v 1.207487 0.336747 1.807497
v 1.207487 0.589450 1.670138
v 1.207487 1.058980 2.197899
v 0.658145 0.324021 2.249755
v 1.199668 -0.003667 0.008180
v 1.207487 2.285110 -0.034692
v 1.207487 0.325865 2.222869
v 1.162727 1.394949 0.865326
v 1.162727 1.394949 0.022980
v 1.162727 2.066391 0.022980
v 1.162727 2.066391 0.865326
v 1.207487 2.124063 0.922998
v 1.199668 1.294405 0.880126
v 1.207487 2.124063 -0.034692
v 1.199668 1.294405 0.008180
v 1.199668 0.669120 0.880126
v 1.207487 0.537065 2.215675
v 0.658145 -0.014890 0.664161
v 1.207487 -0.014890 -0.034692
v 1.207487 1.337277 -0.034692
v 1.207487 1.337277 0.922998
v 0.672065 -0.014805 -0.021447
v 0.624311 0.282253 0.810994
v 0.658145 0.318354 1.946270
v 1.207487 2.124664 1.104498
v 1.131305 2.110353 1.102503
v 1.142241 1.293994 1.641369
v 0.031368 2.110353 1.102503
v 0.020432 1.293994 1.641369
v 1.131305 1.334467 1.603966
v 0.031368 1.334467 1.603966
v 0.761230 0.277064 1.666941
v 1.142241 2.124664 1.104498
v 0.020432 2.124664 1.104498
v 1.142241 1.330408 1.617834
v 0.020432 1.330408 1.617834
v 1.235442 1.082325 -3.524863
v 1.207448 1.056594 -2.825297
v 1.235442 1.100299 -0.063676
v 1.235442 1.150824 -3.524863
v 1.235442 1.150824 -0.063676
v 1.092054 1.180022 -3.554061
v 1.092054 1.052975 -3.554061
v 1.207487 1.180022 -0.034478
v 1.207487 1.071253 -0.034478
v 1.196851 -0.014890 -2.909931
v 1.207235 1.059978 -1.995306
v 1.207235 -0.004389 -1.842827
v 1.207393 0.561851 -2.610227
v 1.207288 0.563765 -2.203741
v 0.719140 -0.005615 -1.995305
v 0.719141 -0.014886 -2.825295
v 0.802016 0.415911 -2.099523
v 0.802068 0.410319 -2.717761
v -1.199668 -0.003667 0.634668
v -1.207487 2.285110 1.000000
v -1.050001 0.150372 -3.554275
v -1.092054 2.169677 -3.554275
v 0.000000 2.285110 1.000000
v 0.000000 0.150372 -3.554275
v -1.207487 1.293994 1.641369
v -1.207487 0.336747 1.807497
v -1.207487 0.589450 1.670138
v 0.000000 1.293994 1.641369
v -1.207487 1.058980 2.197899
v -0.658145 0.324021 2.249755
v 0.000000 0.324021 2.249755
v 0.000000 1.058980 2.197899
v -1.199668 -0.003667 0.008180
v -1.207487 2.285110 -0.034692
v -1.207487 0.325865 2.222869
v -1.162727 1.394949 0.865326
v -1.162727 1.394949 0.022980
v -1.162727 2.066391 0.022980
v -1.162727 2.066391 0.865326
v -1.207487 2.124063 0.922998
v -1.199668 1.294405 0.880126
v -1.207487 2.124063 -0.034692
v -1.199668 1.294405 0.008180
v -1.199668 0.669120 0.880126
v -1.207487 0.537065 2.215675
v -0.658145 -0.014890 0.664161
v -1.207487 -0.014890 -0.034692
v -1.207487 1.337277 -0.034692
v -1.207487 1.337277 0.922998
v 0.000000 -0.014698 -0.004823
v -0.672065 -0.014805 -0.021447
v 0.000000 -0.014660 0.696539
v -0.624311 0.282253 0.810994
v 0.000000 0.291989 0.913035
v -0.658145 0.318354 1.946270
v -1.207487 2.124664 1.104498
v 0.000000 2.124664 1.104498
v -1.131305 2.110353 1.102503
v -1.142241 1.293994 1.641369
v -0.031368 2.110353 1.102503
v -0.020432 1.293994 1.641369
v -1.131305 1.334467 1.603966
v -0.031368 1.334467 1.603966
v -0.761230 0.277064 1.666941
v -1.142241 2.124664 1.104498
v -0.020432 2.124664 1.104498
v -1.142241 1.330408 1.617834
v -0.020432 1.330408 1.617834
v -1.235442 1.082325 -3.524863
v -1.207448 1.056594 -2.825297
v -1.235442 1.100299 -0.063676
v -1.235442 1.150824 -3.524863
v -1.235442 1.150824 -0.063676
v -1.092054 1.180022 -3.554061
v -1.092054 1.052975 -3.554061
v -1.207487 1.180022 -0.034478
v -1.207487 1.071253 -0.034478
v -1.196851 -0.014890 -2.909931
v -1.207235 1.059978 -1.995306
v -1.207235 -0.004389 -1.842827
v -1.207393 0.561851 -2.610227
v -1.207288 0.563765 -2.203741
v 0.000000 -0.014806 -1.995305
v 0.000000 -0.014851 -2.825296
v -0.719140 -0.005615 -1.995305
v -0.719141 -0.014886 -2.825295
v -0.802016 0.415911 -2.099523
v -0.802068 0.410319 -2.717761
v 1.098299 0.052872 -3.554275
v 0.000000 0.052872 -3.554275
v 1.207487 1.052975 -3.554061
v 1.207487 1.180022 -3.554061
v 1.207487 2.285110 -3.554275
v -1.207487 2.285110 -3.554275
v -1.098299 0.052872 -3.554275
v -1.207487 1.052975 -3.554061
v -1.207487 1.180022 -3.554061
v 1.207487 -0.014890 -3.554275
v 0.000000 -0.014890 -3.554275
v -1.207487 -0.014890 -3.554275
v 1.092054 0.218134 -3.554275
v 0.000000 0.218134 -3.554275
v -1.092054 0.218134 -3.554275
v 0.000000 0.052872 -3.697907
v 0.000000 0.150372 -3.697907
v 1.098299 0.052872 -3.697907
v -1.098299 0.052872 -3.697907
v 1.050001 0.150372 -3.697907
v -1.050001 0.150372 -3.697907
v 1.092054 0.218134 -3.461382
v 0.000000 0.218134 -3.461382
v 1.092054 1.052975 -3.461168
v 1.092054 1.180022 -3.461168
v 1.092054 2.169677 -3.461382
v -1.092054 2.169677 -3.461382
v -1.092054 0.218134 -3.461382
v -1.092054 1.052975 -3.461168
v -1.092054 1.180022 -3.461168
vt 0.7184 0.2184
vt 0.7174 0.3765
vt 0.6244 0.3898
vt 0.6234 0.2184
vt 0.5951 0.2134
vt 0.5364 0.2134
vt 0.5364 0.1397
vt 0.5951 0.1397
vt 0.0210 0.4149
vt 0.1266 0.4149
vt 0.1266 0.4260
vt 0.1248 0.4260
vt 0.0267 0.4260
vt 0.0210 0.4260
vt 0.0210 0.4831
vt 0.0267 0.4831
vt 0.1248 0.4831
vt 0.1266 0.4831
vt 0.1266 0.5343
vt 0.0210 0.5343
vt 0.6886 0.0210
vt 0.6876 0.0573
vt 0.6655 0.0693
vt 0.6701 0.0216
vt 0.7707 0.6162
vt 0.7702 0.5681
vt 0.7876 0.5681
vt 0.8308 0.5681
vt 0.8308 0.6737
vt 0.7707 0.6737
vt 0.0210 0.3254
vt 0.0210 0.0210
vt 0.2322 0.0210
vt 0.2322 0.3254
vt 0.2322 0.4149
vt 0.7174 0.2147
vt 0.6039 0.2147
vt 0.6039 0.1384
vt 0.6585 0.1384
vt 0.7174 0.1599
vt 0.5313 0.1347
vt 0.5313 0.2184
vt 0.5172 0.2184
vt 0.5172 0.1279
vt 0.6001 0.1347
vt 0.5313 0.1188
vt 0.6039 0.0718
vt 0.6001 0.2184
vt 0.6245 0.0232
vt 0.2748 0.6283
vt 0.2748 0.5735
vt 0.3222 0.5710
vt 0.2741 0.6321
vt 0.6139 0.2184
vt 0.8105 0.2322
vt 0.8862 0.1812
vt 0.8795 0.2315
vt 0.8231 0.4366
vt 0.7945 0.4336
vt 0.7910 0.3790
vt 0.8222 0.3790
vt 0.3797 0.6295
vt 0.3797 0.8035
vt 0.3168 0.8035
vt 0.2742 0.7901
vt 0.3210 0.6309
vt 0.7869 0.1841
vt 0.7603 0.1841
vt 0.7603 0.1266
vt 0.8773 0.1266
vt 0.3797 0.5681
vt 0.7603 0.4840
vt 0.7990 0.2322
vt 0.7627 0.2322
vt 0.8114 0.1931
vt 0.8229 0.4840
vt 0.0267 0.4806
vt 0.1248 0.4806
vt 0.1238 0.4794
vt 0.0276 0.4794
vt 0.0276 0.4260
vt 0.1238 0.4260
vt 0.6716 0.9620
vt 0.6716 0.9144
vt 0.6902 0.9274
vt 0.9713 0.4152
vt 0.9713 0.5114
vt 0.9701 0.5123
vt 0.9701 0.4142
vt 0.9773 0.8829
vt 0.9773 0.8021
vt 0.9781 0.8011
vt 0.9781 0.8838
vt 0.9781 0.5691
vt 0.9781 0.6499
vt 0.9773 0.6508
vt 0.9773 0.5681
vt 0.6247 0.4624
vt 0.7184 0.4698
vt 0.7184 0.5262
vt 0.6250 0.5262
vt 0.6209 0.2209
vt 0.6224 0.5236
vt 0.6164 0.5236
vt 0.6164 0.2209
vt 0.6139 0.5262
vt 0.5172 0.5262
vt 0.6678 0.4081
vt 0.6679 0.4436
vt 0.2751 0.8835
vt 0.3168 0.8761
vt 0.3797 0.8761
vt 0.3797 0.9398
vt 0.2741 0.9398
vt 0.7804 0.8657
vt 0.7804 0.8302
vt 0.8158 0.8213
vt 0.8158 0.8754
vt 0.6538 0.8725
vt 0.6111 0.8719
vt 0.6183 0.8347
vt 0.6538 0.8213
vt 0.5691 0.8772
vt 0.5339 0.8612
vt 0.5273 0.8228
vt 0.5691 0.8213
vt 0.1000 0.8720
vt 0.1001 0.8179
vt 0.1371 0.8092
vt 0.1371 0.8818
vt 0.2741 0.2184
vt 0.3691 0.2184
vt 0.3681 0.3898
vt 0.2751 0.3765
vt 0.3974 0.2134
vt 0.3974 0.1397
vt 0.4562 0.1397
vt 0.4562 0.2134
vt 0.2322 0.4260
vt 0.2265 0.4260
vt 0.1284 0.4260
vt 0.2322 0.4831
vt 0.2322 0.5343
vt 0.1284 0.4831
vt 0.2265 0.4831
vt 0.3039 0.0210
vt 0.3224 0.0216
vt 0.3270 0.0693
vt 0.3049 0.0573
vt 0.7707 0.7313
vt 0.8308 0.7793
vt 0.7876 0.7793
vt 0.7702 0.7793
vt 0.2751 0.2147
vt 0.2751 0.1599
vt 0.3340 0.1384
vt 0.3886 0.1384
vt 0.3886 0.2147
vt 0.4612 0.1347
vt 0.4753 0.1279
vt 0.4753 0.2184
vt 0.4612 0.2184
vt 0.3924 0.1347
vt 0.3886 0.0718
vt 0.4612 0.1188
vt 0.3924 0.2184
vt 0.3680 0.0232
vt 0.4846 0.6283
vt 0.4853 0.6321
vt 0.4373 0.5710
vt 0.4846 0.5735
vt 0.3786 0.2184
vt 0.8105 0.0210
vt 0.8795 0.0217
vt 0.8862 0.0720
vt 0.8231 0.3215
vt 0.7945 0.3245
vt 0.4385 0.6309
vt 0.4853 0.7901
vt 0.4426 0.8035
vt 0.7603 0.0690
vt 0.7869 0.0690
vt 0.7603 0.2741
vt 0.7627 0.0210
vt 0.7990 0.0210
vt 0.8114 0.0600
vt 0.8229 0.2741
vt 0.2265 0.4806
vt 0.1284 0.4806
vt 0.1293 0.4794
vt 0.1293 0.4260
vt 0.2255 0.4260
vt 0.2255 0.4794
vt 0.6296 0.9620
vt 0.6111 0.9274
vt 0.6296 0.9144
vt 0.9713 0.3713
vt 0.9701 0.3722
vt 0.9701 0.2741
vt 0.9713 0.2751
vt 0.9782 0.1466
vt 0.9790 0.1457
vt 0.9790 0.2284
vt 0.9782 0.2274
vt 0.9790 0.1027
vt 0.9782 0.1037
vt 0.9782 0.0210
vt 0.9790 0.0219
vt 0.3678 0.4624
vt 0.3675 0.5262
vt 0.2741 0.5262
vt 0.2741 0.4698
vt 0.3717 0.2209
vt 0.3761 0.2209
vt 0.3761 0.5236
vt 0.3701 0.5236
vt 0.4753 0.5262
vt 0.3786 0.5262
vt 0.3246 0.4436
vt 0.3247 0.4081
vt 0.4844 0.8835
vt 0.4853 0.9398
vt 0.4426 0.8761
vt 0.1790 0.9168
vt 0.2145 0.9071
vt 0.2145 0.9612
vt 0.1790 0.9523
vt 0.7384 0.8213
vt 0.7384 0.8725
vt 0.7030 0.8591
vt 0.6957 0.8218
vt 0.2208 0.8092
vt 0.2208 0.8651
vt 0.1790 0.8636
vt 0.1857 0.8252
vt 0.0210 0.8190
vt 0.0580 0.8092
vt 0.0580 0.8818
vt 0.0211 0.8731
vt 0.9353 0.8011
vt 0.9353 0.8877
vt 0.9272 0.8877
vt 0.9272 0.8011
vt 0.8650 0.5082
vt 0.8736 0.5082
vt 0.8736 0.5208
vt 0.8650 0.5208
vt 0.5476 0.7692
vt 0.6206 0.7692
vt 0.6206 0.7793
vt 0.5273 0.7793
vt 0.6317 0.7692
vt 0.6317 0.7793
vt 0.7181 0.7692
vt 0.7282 0.7793
vt 0.7181 0.5782
vt 0.7282 0.5681
vt 0.8776 0.2741
vt 0.8776 0.3702
vt 0.8650 0.3702
vt 0.8650 0.2741
vt 0.6206 0.5782
vt 0.5476 0.5782
vt 0.5273 0.5681
vt 0.6206 0.5681
vt 0.6317 0.5782
vt 0.6317 0.5681
vt 0.5332 0.6737
vt 0.5332 0.7698
vt 0.5273 0.6737
vt 0.5332 0.5777
vt 0.5417 0.7656
vt 0.5417 0.6737
vt 0.5476 0.6737
vt 0.5417 0.5819
vt 0.9196 0.3702
vt 0.9196 0.2784
vt 0.9281 0.2741
vt 0.9281 0.3702
vt 0.9196 0.4620
vt 0.9281 0.4662
vt 0.8728 0.7518
vt 0.8728 0.6600
vt 0.8852 0.6600
vt 0.8852 0.7518
vt 0.8776 0.4662
vt 0.8650 0.4662
vt 0.9241 0.5208
vt 0.9155 0.5208
vt 0.9155 0.5082
vt 0.9241 0.5082
vt 0.8728 0.5681
vt 0.8852 0.5681
vt 0.1914 0.7672
vt 0.1050 0.7672
vt 0.0939 0.7672
vt 0.0210 0.7672
vt 0.0210 0.6717
vt 0.0210 0.5763
vt 0.0939 0.5763
vt 0.1050 0.5763
vt 0.1914 0.5763
vt 0.9362 0.0210
vt 0.9362 0.1165
vt 0.9282 0.1165
vt 0.9282 0.0210
vt 0.8809 0.8668
vt 0.8809 0.8779
vt 0.8728 0.8779
vt 0.8728 0.8668
vt 0.9272 0.7591
vt 0.9272 0.5681
vt 0.9353 0.5681
vt 0.9353 0.7591
vt 0.9353 0.8988
vt 0.9353 0.9718
vt 0.9272 0.9718
vt 0.9272 0.8988
vt 0.8809 0.9644
vt 0.8728 0.9644
vt 0.9362 0.2120
vt 0.9282 0.2120
vt 0.8809 0.7938
vt 0.8728 0.7938
vn 1.0000 -0.0000 -0.0001
vn 1.0000 0.0000 0.0000
vn 0.0000 0.5458 0.8379
vn 0.0000 0.9212 0.3890
vn 0.0111 0.0621 0.9980
vn 0.0000 1.0000 0.0000
vn 1.0000 -0.0046 -0.0003
vn 0.7900 0.0000 -0.6131
vn 0.7900 -0.0000 0.6131
vn 0.7900 0.6131 0.0000
vn 0.7900 -0.6131 0.0000
vn 1.0000 -0.0002 -0.0045
vn 0.0416 -0.9990 0.0172
vn 0.9837 -0.0000 0.1799
vn 0.9838 -0.1794 0.0000
vn 0.9838 0.0000 -0.1794
vn 0.5631 -0.8216 -0.0884
vn 0.0857 -0.5102 0.8558
vn 0.0046 -1.0000 -0.0034
vn -0.0029 -0.9996 0.0266
vn -0.0002 -1.0000 -0.0001
vn -0.0003 -1.0000 -0.0000
vn 0.1754 -0.4200 0.8904
vn 0.0173 -0.9998 -0.0073
vn 0.5713 -0.8151 -0.0963
vn 0.0582 -0.3422 0.9378
vn -0.0000 0.5428 0.8399
vn 0.3224 -0.4521 -0.8317
vn -0.2791 -0.9595 0.0388
vn 0.0767 -0.9819 0.1734
vn 0.0000 -0.1381 0.9904
vn -0.6536 0.4108 0.6357
vn 0.6536 0.4108 0.6357
vn 0.0000 0.9597 0.2809
vn 1.0000 -0.0053 0.0078
vn 0.7223 0.0000 -0.6916
vn 0.7223 0.0000 0.6916
vn 0.7265 -0.6872 0.0036
vn 0.7223 0.6916 -0.0000
vn 1.0000 -0.0019 -0.0042
vn -0.0000 -1.0000 0.0000
vn 0.0064 -1.0000 0.0056
vn 0.3464 -0.9380 0.0069
vn 0.1202 -0.4305 -0.8946
vn 0.0412 -0.3795 0.9243
vn 0.9814 -0.1922 0.0020
vn -1.0000 -0.0000 -0.0001
vn -1.0000 0.0000 0.0000
vn -0.0111 0.0621 0.9980
vn -1.0000 -0.0046 -0.0003
vn -0.7900 0.0000 -0.6131
vn -0.7900 0.0000 0.6131
vn -0.7900 0.6131 0.0000
vn -0.7900 -0.6131 0.0000
vn -1.0000 -0.0002 -0.0045
vn -0.0416 -0.9990 0.0172
vn -0.9837 -0.0000 0.1799
vn -0.9838 -0.1794 0.0000
vn -0.9838 0.0000 -0.1794
vn -0.5631 -0.8216 -0.0884
vn -0.0857 -0.5102 0.8558
vn -0.0046 -1.0000 -0.0034
vn 0.0029 -0.9996 0.0266
vn 0.0002 -1.0000 -0.0001
vn 0.0003 -1.0000 -0.0000
vn -0.1754 -0.4200 0.8904
vn -0.0173 -0.9998 -0.0073
vn -0.5713 -0.8151 -0.0963
vn -0.0582 -0.3422 0.9378
vn -0.3224 -0.4521 -0.8317
vn 0.2791 -0.9595 0.0388
vn -0.0767 -0.9819 0.1734
vn -1.0000 -0.0053 0.0078
vn -0.7223 0.0000 -0.6916
vn -0.7223 0.0000 0.6916
vn -0.7265 -0.6872 0.0036
vn -0.7223 0.6916 -0.0000
vn -1.0000 -0.0019 -0.0042
vn -0.0064 -1.0000 0.0056
vn -0.3464 -0.9380 0.0069
vn -0.1202 -0.4305 -0.8946
vn -0.0412 -0.3795 0.9243
vn -0.9814 -0.1922 0.0020
vn -0.8961 0.4439 0.0000
vn 0.0002 0.0002 -1.0000
vn 0.0000 0.0000 -1.0000
vn 0.0001 -0.0002 -1.0000
vn -0.0002 0.0002 -1.0000
vn -0.0001 -0.0002 -1.0000
vn 0.8961 0.4439 0.0000
usemtl None
s off
f 44/51/12 73/52/12 72/53/12 70/54/12
f 34/55/13 35/56/13 36/57/13 33/58/13
f 22/59/14 84/60/14 118/61/14 59/62/14 58/63/14 50/64/14
f 25/65/15 52/66/15 54/67/15 89/68/15 93/69/15 28/70/15
f 32/71/13 26/72/13 27/73/13 42/74/13
f 29/75/16 32/76/16 42/77/16 28/78/16 93/79/16 92/80/16
f 84/60/17 22/59/17 31/81/17 154/82/17 155/83/17 95/84/17 81/85/17
f 30/86/13 40/87/13 38/88/13 41/89/13 21/90/13
f 37/91/13 39/92/13 31/93/13 22/94/13
f 46/95/18 37/91/18 22/94/18 50/96/18 25/97/18 41/89/18
f 33/58/19 36/57/19 37/91/19 46/95/19
f 35/56/20 34/55/20 45/98/20 39/92/20
f 34/55/21 33/58/21 46/95/21 45/98/21
f 36/57/22 35/56/22 39/92/22 37/91/22
f 25/97/23 28/99/23 42/74/23 27/73/23 41/89/23
f 30/100/24 21/101/24 43/102/24 44/103/24
f 40/87/25 30/86/25 44/51/25 70/54/25 69/104/25 45/98/25
f 38/88/26 40/87/26 45/98/26 46/95/26
f 41/89/27 38/88/27 46/95/27
f 27/105/28 48/106/28 41/107/28
f 43/108/29 48/109/29 115/110/29 113/111/29
f 111/112/30 144/113/30 76/114/30 73/115/30 44/103/30 47/116/30
f 48/106/31 49/117/31 29/118/31 92/119/31 115/120/31
f 47/116/32 44/103/32 43/102/32
f 113/121/33 111/112/33 47/116/33 43/102/33
f 41/122/34 48/109/34 43/108/34
f 49/117/35 26/123/35 32/124/35 29/118/35
f 48/106/36 27/105/36 57/125/36
f 43/108/37 21/126/37 41/122/37
f 50/64/38 58/63/38 60/127/38 52/66/38 25/65/38
f 52/66/38 60/127/38 61/128/38 54/67/38
f 54/67/38 61/128/38 59/62/38 118/61/38 89/68/38
f 56/129/38 55/130/38 51/131/38 53/132/38
f 57/133/39 27/134/39 26/135/39
f 48/106/40 57/125/40 49/117/40
f 49/117/41 57/125/41 26/123/41
f 53/136/42 51/137/42 58/138/42 59/139/42
f 51/140/43 55/141/43 60/142/43 58/143/43
f 56/144/44 53/145/44 59/146/44 61/147/44
f 55/130/45 56/129/45 61/128/45 60/127/45
f 63/148/46 71/149/46 159/150/46 152/151/46
f 64/152/13 62/153/13 65/154/13 66/155/13
f 69/104/13 153/156/13 154/157/13 31/93/13 39/92/13 45/98/13
f 65/154/47 62/153/47 152/151/47 153/156/47
f 64/152/48 66/155/48 69/104/48 70/54/48
f 62/153/49 64/152/49 70/54/49 72/53/49 63/148/49 152/151/49
f 66/155/50 65/154/50 153/156/50 69/104/50
f 72/53/51 73/52/51 75/158/51 74/159/51 71/149/51 63/148/51
f 71/160/52 77/161/52 145/162/52 160/163/52 159/164/52
f 77/161/53 76/114/53 144/113/53 145/162/53
f 74/165/54 75/166/54 78/167/54 79/168/54
f 73/169/55 76/170/55 78/171/55 75/172/55
f 74/173/56 79/174/56 77/175/56 71/176/56
f 79/177/57 78/178/57 76/179/57 77/180/57
f 108/181/58 138/182/58 140/183/58 141/184/58
f 98/185/59 97/186/59 100/187/59 99/188/59
f 81/85/14 117/189/14 126/190/14 127/191/14 118/61/14 84/60/14
f 86/192/15 90/193/15 93/69/15 89/68/15 122/194/15 120/195/15
f 96/196/59 106/197/59 88/198/59 87/199/59
f 91/200/60 92/80/60 93/79/60 90/201/60 106/202/60 96/203/60
f 94/204/59 80/205/59 105/206/59 102/207/59 104/208/59
f 101/209/59 81/210/59 95/211/59 103/212/59
f 110/213/61 105/206/61 86/214/61 117/215/61 81/210/61 101/209/61
f 97/186/62 110/213/62 101/209/62 100/187/62
f 99/188/63 103/212/63 109/216/63 98/185/63
f 98/185/64 109/216/64 110/213/64 97/186/64
f 100/187/65 101/209/65 103/212/65 99/188/65
f 86/214/66 105/206/66 88/198/66 106/197/66 90/217/66
f 94/218/67 108/219/67 107/220/67 80/221/67
f 104/208/68 109/216/68 137/222/68 138/182/68 108/181/68 94/204/68
f 102/207/69 110/213/69 109/216/69 104/208/69
f 105/206/70 110/213/70 102/207/70
f 88/223/71 105/224/71 114/225/71
f 107/226/72 113/111/72 115/110/72 114/227/72
f 111/112/73 112/228/73 108/219/73 141/229/73 146/230/73 144/113/73
f 114/225/74 115/120/74 92/119/74 91/231/74 116/232/74
f 112/228/75 107/220/75 108/219/75
f 113/121/76 107/220/76 112/228/76 111/112/76
f 105/233/77 107/226/77 114/227/77
f 116/232/78 91/231/78 96/234/78 87/235/78
f 114/225/79 125/236/79 88/223/79
f 107/226/80 105/233/80 80/237/80
f 117/189/38 86/192/38 120/195/38 128/238/38 126/190/38
f 120/195/38 122/194/38 129/239/38 128/238/38
f 122/194/38 89/68/38 118/61/38 127/191/38 129/239/38
f 124/240/38 121/241/38 119/242/38 123/243/38
f 125/244/81 87/245/81 88/246/81
f 114/225/82 116/232/82 125/236/82
f 116/232/83 87/235/83 125/236/83
f 121/247/42 127/248/42 126/249/42 119/250/42
f 119/251/44 126/252/44 128/253/44 123/254/44
f 124/255/43 129/256/43 127/257/43 121/258/43
f 123/243/45 128/238/45 129/239/45 124/240/45
f 131/259/84 157/260/84 161/261/84 139/262/84
f 132/263/59 134/264/59 133/265/59 130/266/59
f 137/222/59 109/216/59 103/212/59 95/211/59 155/267/59 158/268/59
f 133/265/85 158/268/85 157/260/85 130/266/85
f 132/263/86 138/182/86 137/222/86 134/264/86
f 130/266/87 157/260/87 131/259/87 140/183/87 138/182/87 132/263/87
f 134/264/88 137/222/88 158/268/88 133/265/88
f 140/183/89 131/259/89 139/262/89 142/269/89 143/270/89 141/184/89
f 139/271/52 161/272/52 160/163/52 145/162/52 147/273/52
f 147/273/90 145/162/90 144/113/90 146/230/90
f 142/274/91 149/275/91 148/276/91 143/277/91
f 141/278/92 143/279/92 148/280/92 146/281/92
f 142/282/93 139/283/93 147/284/93 149/285/93
f 149/286/94 147/287/94 146/288/94 148/289/94
f 24/290/59 67/291/59 174/292/59 175/293/59
f 156/294/95 82/295/95 170/296/95 168/297/95
f 162/298/96 68/299/96 152/300/96 159/301/96
f 68/299/97 67/302/97 153/303/97 152/300/97
f 67/302/98 24/304/98 154/305/98 153/303/98
f 24/304/97 83/306/97 155/307/97 154/305/97
f 150/308/52 151/309/52 165/310/52 167/311/52
f 136/312/99 164/313/99 161/314/99 157/315/99
f 135/316/97 136/312/97 157/315/97 158/317/97
f 83/306/100 135/316/100 158/317/100 155/307/100
f 151/318/97 150/319/97 159/301/97 160/320/97
f 156/321/97 151/318/97 160/320/97 161/314/97
f 23/322/97 85/323/97 163/324/97 162/298/97
f 85/323/97 82/325/97 164/313/97 163/324/97
f 150/319/97 23/322/97 162/298/97 159/301/97
f 82/325/97 156/321/97 161/314/97 164/313/97
f 166/326/97 169/327/97 167/328/97 165/329/97
f 170/330/97 166/326/97 165/329/97 168/331/97
f 82/332/17 85/333/17 166/334/17 170/335/17
f 151/309/52 156/336/52 168/337/52 165/310/52
f 23/338/101 150/339/101 167/340/101 169/341/101
f 85/333/17 23/342/17 169/343/17 166/334/17
f 175/344/97 174/345/97 173/346/97 171/347/97 172/348/97 177/349/97 178/350/97 179/351/97 176/352/97
f 162/353/17 163/354/17 172/355/17 171/356/17
f 136/357/13 135/358/13 179/359/13 178/360/13
f 83/361/52 24/362/52 175/363/52 176/364/52
f 68/365/59 162/366/59 171/367/59 173/368/59
f 135/358/13 83/369/13 176/370/13 179/359/13
f 163/354/17 164/371/17 177/372/17 172/355/17
f 67/291/59 68/365/59 173/368/59 174/292/59
f 164/373/13 136/357/13 178/360/13 177/374/13
